<?xml version="1.0" standalone="no"?>
<!DOCTYPE svg PUBLIC "-//W3C//DTD SVG 20010904//EN"
 "http://www.w3.org/TR/2001/REC-SVG-20010904/DTD/svg10.dtd">
<svg version="1.0" xmlns="http://www.w3.org/2000/svg"
 width="225.000000pt" height="225.000000pt" viewBox="0 0 225.000000 225.000000"
 preserveAspectRatio="xMidYMid meet">

<g transform="translate(0.000000,225.000000) scale(0.100000,-0.100000)"
fill="#000000" stroke="none">
<path d="M1020 1536 c-75 -20 -140 -58 -196 -114 -165 -165 -165 -427 0 -595
l51 -51 3 56 c3 51 -1 63 -32 110 -44 66 -60 131 -54 212 10 118 80 221 187
273 49 24 68 28 146 28 75 0 98 -4 140 -25 189 -92 252 -325 134 -497 -26 -37
-30 -51 -27 -100 l3 -57 51 51 c165 169 164 430 -2 597 -106 106 -265 150
-404 112z"/>
<path d="M1220 984 c0 -217 3 -275 13 -271 6 2 29 10 50 18 l37 13 0 258 0
258 -50 0 -50 0 0 -276z"/>
<path d="M1080 920 l0 -220 45 0 45 0 0 220 0 220 -45 0 -45 0 0 -220z"/>
</g>
</svg>
